<?xml version="1.0" standalone="no"?>
<!DOCTYPE svg PUBLIC "-//W3C//DTD SVG 20010904//EN"
 "http://www.w3.org/TR/2001/REC-SVG-20010904/DTD/svg10.dtd">
<svg version="1.0" xmlns="http://www.w3.org/2000/svg"
 width="739.000000pt" height="739.000000pt" viewBox="0 0 739.000000 739.000000"
 preserveAspectRatio="xMidYMid meet">
<metadata>
Created by potrace 1.14, written by Peter Selinger 2001-2017
</metadata>
<g transform="translate(0.000000,739.000000) scale(0.100000,-0.100000)"
fill="#000000" stroke="none">
<path d="M1081 4181 c-96 -192 -94 -169 -20 -301 20 -36 58 -105 84 -155 26
-49 65 -121 86 -160 20 -38 61 -115 91 -170 29 -55 80 -151 113 -213 l60 -112
187 0 186 0 -77 143 c-42 78 -99 183 -126 232 -26 50 -62 115 -78 145 -51 93
-93 171 -139 256 -208 387 -273 504 -278 504 -3 0 -43 -76 -89 -169z"/>
<path d="M2710 3810 l0 -430 203 0 204 0 -1 58 -1 57 -100 2 c-55 1 -119 2
-142 3 l-43 0 0 370 0 370 -60 0 -60 0 0 -430z"/>
<path d="M6000 3978 c-128 -22 -229 -129 -244 -259 -4 -33 -2 -48 7 -51 6 -2
114 -3 239 -3 l227 1 -6 -25 c-31 -134 -200 -182 -316 -90 l-37 30 -40 -28
c-22 -15 -40 -31 -40 -34 0 -12 55 -61 95 -84 81 -47 215 -51 297 -9 49 25 99
76 125 128 36 69 38 188 6 257 -57 119 -187 189 -313 167z m130 -123 c35 -18
80 -65 80 -82 0 -10 -39 -13 -165 -13 l-166 0 15 28 c42 79 152 110 236 67z"/>
<path d="M6645 3962 c-16 -10 -43 -37 -59 -60 -16 -23 -30 -42 -32 -42 -1 0
-2 24 -1 53 l2 52 -57 1 -58 2 0 -279 0 -279 58 0 58 0 0 173 c1 135 4 178 16
202 29 55 71 79 135 77 29 -1 33 2 47 45 9 26 16 53 16 60 0 20 -89 17 -125
-5z"/>
<path d="M6950 3965 c-50 -27 -82 -71 -87 -119 -11 -91 18 -129 144 -187 117
-54 143 -108 72 -145 -36 -18 -77 -13 -121 14 l-33 20 -43 -22 -43 -22 21 -27
c12 -15 41 -38 64 -52 136 -80 311 19 292 164 -9 66 -44 104 -139 149 -101 49
-125 72 -109 107 6 14 17 25 24 26 7 0 22 2 33 4 10 2 40 -5 66 -17 l48 -20
35 29 c20 15 36 31 36 34 0 4 -23 22 -52 40 -44 28 -62 34 -117 36 -41 1 -75
-3 -91 -12z"/>
<path d="M5370 3944 c-24 -14 -55 -37 -69 -51 l-26 -25 -3 41 c-2 27 -8 41
-18 42 -8 0 -33 1 -56 1 l-43 1 -3 -276 -2 -277 60 0 60 0 0 164 c0 205 15
252 92 292 77 40 164 -16 158 -103 -1 -15 -2 -101 -1 -190 l1 -163 61 0 61 0
-4 228 c-3 217 -4 228 -26 259 -55 77 -162 102 -242 57z"/>
<path d="M3485 3949 c-123 -16 -218 -110 -245 -242 -6 -32 -9 -61 -6 -65 4 -3
112 -6 241 -6 145 0 235 -4 235 -10 0 -5 -9 -29 -20 -52 -52 -106 -196 -134
-297 -57 l-45 34 -39 -27 c-21 -15 -39 -30 -39 -35 0 -4 11 -19 24 -32 92 -92
247 -118 363 -61 176 85 215 331 75 469 -67 66 -156 96 -247 84z m125 -124
c34 -18 65 -46 79 -72 l12 -23 -171 0 -171 0 16 29 c38 75 154 107 235 66z"/>
<path d="M4082 3940 c-208 -107 -216 -433 -13 -544 96 -52 197 -38 276 40 25
24 47 44 49 44 2 0 2 -22 0 -50 l-3 -50 60 0 59 0 0 283 0 284 -47 -1 c-67 -2
-74 -9 -69 -63 l4 -47 -30 33 c-57 60 -102 83 -176 88 -55 3 -75 0 -110 -17z
m239 -120 c105 -69 119 -213 28 -295 -89 -80 -207 -65 -275 37 -27 40 -31 54
-30 106 2 61 18 94 68 138 53 49 146 55 209 14z"/>
<path d="M4930 3953 c-23 -9 -70 -55 -88 -88 l-17 -30 -5 55 -5 55 -55 0 -55
0 0 -282 0 -283 57 0 58 0 1 63 c0 34 0 112 0 172 -1 87 2 117 16 145 25 48
76 80 127 80 41 0 42 1 57 49 8 27 13 54 11 60 -4 11 -74 14 -102 4z"/>
<path d="M832 3737 c-24 -47 -54 -102 -236 -434 -69 -128 -133 -252 -140 -277
-37 -121 16 -221 136 -257 31 -10 805 -15 814 -6 3 2 -29 72 -71 155 l-75 152
-209 2 -209 3 105 185 c76 134 102 189 96 200 -5 8 -47 81 -92 162 -46 82 -86
150 -90 152 -4 3 -17 -14 -29 -37z"/>
<path d="M4481 3133 c-93 -48 -102 -172 -17 -228 54 -35 146 -26 146 14 0 17
-3 18 -28 9 -68 -26 -142 20 -142 89 0 69 87 117 151 83 16 -9 19 -7 19 9 0
25 -10 31 -57 37 -24 2 -50 -2 -72 -13z"/>
<path d="M2740 3015 c0 -112 2 -125 18 -125 15 0 17 12 16 117 -2 143 -1 133
-19 133 -13 0 -15 -21 -15 -125z"/>
<path d="M3100 3133 c0 -17 16 -30 32 -27 26 4 29 -6 30 -116 0 -86 3 -100 17
-100 14 0 16 13 15 93 -2 110 1 124 24 124 35 0 41 3 36 18 -5 11 -24 15 -80
15 -41 0 -74 -3 -74 -7z"/>
<path d="M3969 3094 c-92 -211 -89 -204 -69 -204 12 0 22 11 29 33 11 31 13
32 65 32 52 0 54 -1 66 -32 7 -22 18 -33 31 -33 18 0 18 3 -6 57 -14 31 -37
84 -52 117 -15 34 -30 65 -34 70 -5 5 -18 -13 -30 -40z m60 -106 c1 -5 -15 -8
-34 -8 -40 0 -41 1 -18 52 l18 40 17 -39 c9 -21 17 -41 17 -45z"/>
<path d="M5001 3077 c-17 -37 -31 -70 -31 -72 0 -5 -36 -85 -47 -107 -2 -5 4
-8 15 -8 11 0 24 12 33 32 14 33 22 35 103 29 7 -1 19 -14 26 -31 7 -18 20
-30 31 -30 19 0 11 21 -70 195 l-29 60 -31 -68z m69 -93 c0 -2 -16 -4 -35 -4
-19 0 -35 2 -35 5 0 2 7 23 16 45 l17 41 18 -41 c11 -23 19 -44 19 -46z"/>
<path d="M5470 3015 l0 -125 45 0 c96 0 161 57 151 133 -9 76 -61 117 -151
117 l-45 0 0 -125z m138 59 c30 -35 30 -87 -3 -119 -13 -14 -30 -25 -37 -26
-7 0 -23 -2 -35 -5 -13 -2 -24 -1 -24 4 -4 20 -5 168 -2 174 8 16 79 -4 101
-28z"/>
<path d="M5995 3015 l-1 -125 68 0 c59 0 68 2 68 18 0 16 -7 18 -50 16 l-50
-3 0 44 0 45 50 0 c42 0 50 3 50 18 0 16 -7 18 -50 16 l-50 -4 0 33 c0 33 0
33 47 33 38 -1 48 3 51 17 3 15 -5 17 -65 17 l-68 0 0 -125z"/>
<path d="M6507 3133 c-3 -5 -19 -62 -35 -126 -28 -108 -28 -117 -12 -117 14 0
22 16 35 76 9 42 20 72 24 68 4 -5 18 -36 31 -69 30 -78 37 -85 50 -49 6 16
15 38 20 49 5 11 15 34 21 50 11 29 12 29 32 -47 16 -59 25 -78 38 -78 15 0
14 11 -12 113 -16 61 -32 119 -35 127 -3 9 -20 -21 -41 -73 -20 -48 -37 -87
-38 -85 -2 2 -19 41 -38 87 -19 46 -37 79 -40 74z"/>
<path d="M7071 3083 c18 -32 36 -63 41 -69 4 -6 7 -31 7 -55 -2 -64 -1 -69 16
-69 12 0 15 13 15 58 0 32 4 62 8 68 5 5 23 35 40 67 29 51 30 57 14 57 -12 0
-29 -18 -47 -51 l-27 -51 -20 29 c-10 15 -23 38 -28 51 -6 13 -18 22 -30 22
-20 0 -20 -3 11 -57z"/>
<path d="M1565 2950 l16 -30 344 0 344 0 -17 30 -17 30 -343 0 -343 0 16 -30z"/>
<path d="M1688 2812 c-52 -3 -55 -7 -33 -39 14 -20 23 -20 224 -21 l210 -1
-19 32 -20 32 -157 0 c-87 0 -179 -1 -205 -3z"/>
</g>
</svg>
